<mxfile host="app.diagrams.net" modified="2024-05-15T01:55:21.197Z" agent="Mozilla/5.0 (Macintosh; Intel Mac OS X 10_15_7) AppleWebKit/537.36 (KHTML, like Gecko) Chrome/124.0.0.0 Safari/537.36" version="24.2.3" etag="7es0RBjZ5RlsjDR4sRkV" type="github">
  <diagram name="Page-1" id="_4nj1ycp-Higg6YmpvrE">
    <mxGraphModel>
      <root>
        <mxCell id="0" />
        <mxCell id="1" parent="0" />
      </root>
    </mxGraphModel>
  </diagram>
</mxfile>
